# xmcd
#
# Track frame offsets: 
#        150
#        23159
#        43893
#        59146
#        79471
#        98947
#        113349
#        131245
#        145203
#        168215
#
# Disc length: 2525 seconds
#
# Revision: 0
# Processed by: cddbd v1.5.2PL0 Copyright (c) Steve Scherf et al.
# Submitted via: ExactAudioCopy v1.0b3
#
DISCID=8d09db0a
DTITLE=Ingrid Holly Kaiter - Home is Where I'm Heading
DYEAR=2015
DGENRE=Crossover
TTITLE0=Still Smokin'
TTITLE1=Glass Bottom Boat
TTITLE2=Get Out While You Can
TTITLE3=Fat Girl in an Ice Cream Store
TTITLE4=Come Back to Me
TTITLE5=Give Me a Dime
TTITLE6=You Can't Tame Me
TTITLE7=Jack and Jill
TTITLE8=If You See Him
TTITLE9=Home Is Where I'm Heading
EXTD=
EXTT0=
EXTT1=
EXTT2=
EXTT3=
EXTT4=
EXTT5=
EXTT6=
EXTT7=
EXTT8=
EXTT9=
PLAYORDER=
